<svg xmlns="http://www.w3.org/2000/svg" viewBox="0 0 42 42" width="42" height="42">
	<style>
		tspan { white-space:pre }
		.shp0 { opacity: 0.2;fill: #ffffff } 
		.shp1 { fill: #ffffff } 
	</style>
	<g id="4">
		<g id="cursor1">
			<path id="Ellipse 1 copy" class="shp0" d="M21.48 1.62C32.25 1.62 40.97 10.37 40.97 21.16C40.97 31.94 32.25 40.69 21.48 40.69C10.72 40.69 2 31.94 2 21.16C2 10.37 10.72 1.62 21.48 1.62Z" />
			<path id="Ellipse 1" fill-rule="evenodd" class="shp1" d="M21.48 10C27.64 10 32.62 14.99 32.62 21.16C32.62 27.32 27.64 32.31 21.48 32.31C15.33 32.31 10.34 27.32 10.34 21.16C10.34 14.99 15.33 10 21.48 10ZM18.69 21.16C18.69 22.69 19.94 23.94 21.48 23.94C23.03 23.94 24.28 22.69 24.28 21.16C24.28 19.62 23.03 18.37 21.48 18.37C19.94 18.37 18.69 19.62 18.69 21.16Z" />
		</g>
	</g>
</svg>